<?xml version="1.0" encoding="UTF-8" standalone="no"?>
<!-- Created with Inkscape (http://www.inkscape.org/) -->

<svg
   width="1000"
   height="1000"
   viewBox="0 0 264.58333 264.58333"
   version="1.1"
   id="svg1"
   xml:space="preserve"
   inkscape:version="1.4 (86a8ad7, 2024-10-11)"
   sodipodi:docname="wp_logo.svg"
   xmlns:inkscape="http://www.inkscape.org/namespaces/inkscape"
   xmlns:sodipodi="http://sodipodi.sourceforge.net/DTD/sodipodi-0.dtd"
   xmlns="http://www.w3.org/2000/svg"
   xmlns:svg="http://www.w3.org/2000/svg"><sodipodi:namedview
     id="namedview1"
     pagecolor="#505050"
     bordercolor="#ffffff"
     borderopacity="1"
     inkscape:showpageshadow="0"
     inkscape:pageopacity="0"
     inkscape:pagecheckerboard="1"
     inkscape:deskcolor="#505050"
     inkscape:document-units="mm"
     inkscape:zoom="0.97386897"
     inkscape:cx="498.52702"
     inkscape:cy="549.35522"
     inkscape:window-width="2230"
     inkscape:window-height="1318"
     inkscape:window-x="637"
     inkscape:window-y="452"
     inkscape:window-maximized="0"
     inkscape:current-layer="svg1"
     showgrid="true"><inkscape:grid
       id="grid1"
       units="px"
       originx="0"
       originy="0"
       spacingx="26.458332"
       spacingy="26.458332"
       empcolor="#0099e5"
       empopacity="0.30196078"
       color="#0099e5"
       opacity="0.14901961"
       empspacing="5"
       enabled="true"
       visible="true" /></sodipodi:namedview><defs
     id="defs1" /><circle
     style="display:inline;fill:#a04c42;fill-opacity:1;stroke:none;stroke-width:0.677674;stroke-dasharray:none;stroke-opacity:1"
     id="circle8"
     cx="132.51698"
     cy="131.91962"
     r="99.890144"
     inkscape:label="layer1" /><circle
     style="display:inline;fill:#ff4c47;fill-opacity:1;stroke:none;stroke-width:0.677674;stroke-dasharray:none;stroke-opacity:1"
     id="circle9"
     cx="132.51698"
     cy="131.91962"
     r="89.645012"
     inkscape:label="layer2" /><circle
     style="display:inline;fill:#ff795c;fill-opacity:1;stroke:none;stroke-width:0.677674;stroke-dasharray:none;stroke-opacity:1"
     id="circle10"
     cx="132.51698"
     cy="131.91962"
     r="80.680504"
     inkscape:label="layer3" /><circle
     style="display:inline;fill:#ffda8e;fill-opacity:1;stroke:none;stroke-width:0.677674;stroke-dasharray:none;stroke-opacity:1"
     id="circle11"
     cx="132.51698"
     cy="131.91962"
     r="66.593437"
     inkscape:label="layer4" /><circle
     style="display:inline;fill:#fcffa3;fill-opacity:1;stroke:none;stroke-width:0.677674;stroke-dasharray:none;stroke-opacity:1"
     id="circle12"
     cx="132.51698"
     cy="131.91962"
     r="35.858002"
     inkscape:label="layer5" /><path
     style="fill:#2e4a9d;fill-opacity:1;stroke:none;stroke-width:6.4032;stroke-dasharray:none;stroke-opacity:1"
     d="m 33.830252,133.09257 65.932452,-0.34793 7.306526,22.44139 21.57157,-68.194013 14.96092,52.711183 8.87218,-22.61534 7.82839,15.83074 72.54309,-0.34792 c 0,0 -2.60946,-70.107625 -60.71353,-92.201083 C 114.0278,18.276134 78.191138,46.110416 57.489389,66.638198 36.787643,87.16598 33.830252,133.09257 33.830252,133.09257 Z"
     id="path2"
     inkscape:label="water" /><path
     style="display:inline;fill:#62f0fa;fill-opacity:1;stroke-width:1.29424"
     d="m 36.170608,128.29726 c -0.09599,-0.24952 -0.03185,-1.96748 0.142552,-3.8177 0.174393,-1.85023 0.498526,-4.55219 0.720293,-6.00437 0.221766,-1.45218 0.514273,-3.49196 0.650012,-4.53285 0.135742,-1.04089 0.670063,-3.53497 1.187383,-5.54238 0.51732,-2.00743 1.394523,-4.98816 1.949338,-6.62386 0.554816,-1.63568 1.700866,-4.629775 2.546772,-6.65355 0.84591,-2.023774 2.679012,-5.795293 4.073562,-8.381167 1.394549,-2.585874 3.268206,-5.796561 4.163681,-7.134847 0.895474,-1.338284 2.533407,-3.629086 3.639854,-5.090657 1.106445,-1.461585 3.446149,-4.320633 5.199338,-6.353464 1.753191,-2.032836 4.334132,-4.79819 5.735428,-6.145239 1.401296,-1.34705 3.888508,-3.511274 5.527139,-4.809392 1.638631,-1.298114 4.259975,-3.257422 5.825207,-4.354014 1.565233,-1.096593 3.577676,-2.414689 4.472097,-2.929105 0.894417,-0.514418 2.845876,-1.643524 4.336574,-2.509128 1.490698,-0.865601 3.564124,-1.923648 4.607612,-2.35121 1.043488,-0.427564 3.055932,-1.247643 4.472094,-1.8224 1.416163,-0.574753 4.003747,-1.600431 5.750196,-2.279279 1.74645,-0.678849 3.33201,-1.224842 3.52348,-1.213316 0.19147,0.01152 -0.25422,0.232434 -0.99041,0.490913 -0.7362,0.258479 -1.37613,0.58362 -1.42209,0.722537 -0.046,0.138919 0.48676,0.556734 1.18382,0.928479 0.69704,0.371745 1.50976,1.005813 1.80605,1.409042 0.29628,0.403227 0.5387,1.12204 0.5387,1.59736 0,0.605387 -0.22101,1.053836 -0.73789,1.497334 -0.40583,0.348211 -1.08903,0.633112 -1.51822,0.633112 -0.4292,0 -1.10943,-0.124799 -1.51164,-0.277336 -0.4022,-0.152536 -1.63705,-1.004172 -2.744093,-1.892524 -1.107047,-0.888353 -2.175013,-1.615186 -2.373257,-1.615186 -0.198246,0 -0.617525,0.212909 -0.931731,0.473131 -0.314204,0.260222 -0.639671,0.838117 -0.723257,1.284211 -0.116181,0.620093 0.0439,1.097565 0.679822,2.027704 0.457486,0.669142 1.135339,1.630016 1.506339,2.135276 0.394479,0.537238 0.674541,1.28691 0.674541,1.805621 0,0.487832 -0.19166,1.078151 -0.425913,1.31182 -0.234252,0.233667 -0.702102,0.424852 -1.039665,0.424852 -0.337563,0 -1.179807,-0.43991 -1.871649,-0.977576 -0.739019,-0.574332 -1.428177,-0.912399 -1.670695,-0.819567 -0.263074,0.100695 -0.412799,0.508204 -0.412799,1.123527 0,0.531036 0.243934,1.442473 0.542074,2.025418 0.298139,0.582944 0.54207,1.125578 0.54207,1.205851 0,0.08027 -0.194612,0.145951 -0.432472,0.145951 -0.23786,0 -0.795289,-0.257703 -1.238729,-0.572673 -0.443442,-0.314972 -1.461345,-1.585615 -2.262011,-2.823653 -0.879393,-1.359773 -1.778636,-2.41753 -2.271279,-2.67165 -0.44854,-0.231371 -1.034607,-0.420675 -1.302372,-0.420675 -0.267769,0 -1.431188,0.31371 -2.585377,0.697133 -1.48843,0.494455 -2.946448,1.289119 -5.01509,2.73337 -1.60411,1.119932 -4.191918,3.026559 -5.750683,4.236947 -1.558767,1.210389 -4.57743,3.889682 -6.708142,5.953984 -2.130711,2.064303 -3.874021,3.891407 -3.874021,4.060235 0,0.168828 0.297467,0.743632 0.661039,1.277342 0.363571,0.533713 1.085271,1.171195 1.603777,1.41663 0.518505,0.245436 2.020039,0.668061 3.336743,0.939186 1.316702,0.271111 2.773947,0.69065 3.238323,0.932295 0.464375,0.241631 1.043715,0.858479 1.287421,1.370774 0.243706,0.512296 0.443102,1.315566 0.443102,1.78505 0,0.469497 -0.129264,1.684648 -0.287244,2.700339 -0.233281,1.499786 -0.212473,2.025208 0.110775,2.796924 0.225987,0.539509 0.66539,1.034874 1.016608,1.146059 0.485477,0.153703 0.775663,0.02049 1.348538,-0.619075 0.521015,-0.581668 0.892365,-1.518561 1.297372,-3.273208 0.312082,-1.352065 0.741702,-2.874364 0.954709,-3.382908 0.21301,-0.508518 1.234713,-1.818961 2.270454,-2.912092 1.035739,-1.093119 2.022852,-2.253231 2.193588,-2.578034 0.170733,-0.324791 0.310423,-1.030392 0.310423,-1.567996 0,-0.537602 -0.201313,-1.36682 -0.447363,-1.842705 -0.246045,-0.475937 -0.856466,-1.400629 -1.356489,-2.054924 -0.50002,-0.654293 -1.0465,-1.646983 -1.214396,-2.20598 -0.167898,-0.558995 -0.230942,-1.311764 -0.140096,-1.672821 0.09083,-0.361055 0.423286,-0.983783 0.738754,-1.383836 0.315471,-0.400055 1.080409,-0.986044 1.699867,-1.302195 0.772575,-0.3943 1.608971,-0.570701 2.663277,-0.561703 1.154748,0.0098 1.884944,0.202024 2.936058,0.772685 0.769483,0.417761 1.713382,1.130156 2.097551,1.583096 0.384172,0.452943 1.013017,1.492675 1.397434,2.310516 0.578246,1.230199 0.699476,1.883827 0.70203,3.785046 0.003,2.288029 0.0062,2.298427 0.726388,2.381488 0.491167,0.05665 0.996206,-0.160274 1.573613,-0.675901 0.467668,-0.417629 1.239877,-1.545989 1.716016,-2.507467 0.476144,-0.961476 1.009914,-1.790089 1.186159,-1.84136 0.176245,-0.05127 0.467846,0.18151 0.648,0.517295 0.196024,0.365359 0.339615,1.869777 0.357588,3.746447 0.02434,2.54225 0.123403,3.278094 0.523273,3.886835 0.294529,0.448392 1.193575,1.06433 2.231597,1.528909 1.21283,0.5428 1.90149,1.045542 2.27789,1.66294 0.29672,0.486708 0.67314,1.557146 0.83649,2.378743 0.16333,0.821609 0.48057,2.223797 0.70497,3.115996 0.2244,0.892185 0.51911,1.83105 0.65492,2.086359 0.15128,0.284405 0.14323,0.736229 -0.0208,1.166615 -0.14726,0.386344 -0.26728,1.029099 -0.26672,1.428339 5.5e-4,0.399241 0.25869,1.151709 0.57364,1.672149 0.31495,0.52044 1.22924,1.750613 2.03176,2.733711 0.80252,0.983086 1.45912,1.973331 1.45912,2.200542 0,0.349577 -0.36483,0.392005 -2.37156,0.275863 -1.30437,-0.07555 -2.76256,-0.316651 -3.24045,-0.535936 -0.57151,-0.262224 -1.07076,-0.814629 -1.45869,-1.613995 -0.52917,-1.090364 -0.5551,-1.33101 -0.25225,-2.340515 0.18566,-0.618871 0.83035,-1.826325 1.43264,-2.683229 0.60229,-0.856929 1.0399,-1.613084 0.97247,-1.680345 -0.0675,-0.06723 -0.87212,0.1797 -1.7882,0.548782 -0.9161,0.369107 -2.922625,0.861245 -4.458973,1.093631 -1.536346,0.232398 -3.617416,0.592105 -4.624599,0.799377 -1.007181,0.207272 -2.4882,0.686872 -3.291151,1.065763 -0.802952,0.378917 -1.960844,1.231031 -2.573095,1.893585 -0.612251,0.662553 -1.113182,1.454503 -1.113182,1.759898 0,0.305382 0.173418,0.621624 0.385374,0.702753 0.211957,0.0812 0.668257,-0.0039 1.013997,-0.188063 0.345745,-0.184579 1.337336,-0.92392 2.20354,-1.642988 0.957803,-0.795112 1.840325,-1.307396 2.252263,-1.307396 0.51673,0 0.770476,0.222333 1.070073,0.937585 0.215999,0.515676 0.392725,1.37121 0.392725,1.901204 0,0.529994 -0.18214,1.398475 -0.404756,1.929929 -0.222613,0.531467 -0.330754,1.085742 -0.240308,1.231723 0.09785,0.157928 1.496632,0.230707 3.45391,0.179738 3.12593,-0.08145 3.293399,-0.05853 3.368607,0.460109 0.04353,0.300183 -0.203305,0.963876 -0.548521,1.474853 -0.345216,0.511002 -1.028676,1.198643 -1.5188,1.528114 -0.490124,0.329471 -1.567743,0.739148 -2.394706,0.910397 -1.218407,0.252311 -2.230471,0.223241 -5.336245,-0.153306 -3.144227,-0.38121 -4.109051,-0.407322 -5.371311,-0.145417 -0.846251,0.175601 -2.008554,0.658826 -2.582894,1.073831 -0.574342,0.415018 -1.311609,1.290286 -1.638373,1.945053 -0.326762,0.654768 -1.063362,2.224607 -1.636885,3.488557 -0.90743,1.99981 -1.311112,2.53757 -3.11029,4.1434 -1.187963,1.06028 -2.299166,2.32545 -2.61203,2.97396 -0.29948,0.62076 -0.62572,1.98028 -0.724976,3.02118 -0.09925,1.04088 -0.356222,2.27488 -0.57103,2.74223 -0.279244,0.60753 -0.765635,1.0052 -1.706523,1.39525 -0.72378,0.30003 -1.516327,0.85055 -1.76122,1.22338 -0.244893,0.37282 -0.676317,1.80281 -0.958719,3.17778 -0.282401,1.37495 -0.595005,3.32542 -0.694674,4.33437 -0.175322,1.77478 0.03388,1.51069 0.462296,1.98395 0.656053,0.72471 -0.938389,3.58775 -2.605042,0.41691 -0.385402,-0.73323 -0.185257,-0.29855 -0.206206,-0.47213 -0.0235,-0.19465 -0.321686,-0.92815 -0.852102,-1.6489 -0.530417,-0.72077 -1.502431,-1.8052 -2.160035,-2.40985 -0.657603,-0.60466 -1.60598,-1.32102 -2.107504,-1.59194 -0.714828,-0.38616 -1.497519,-0.48994 -3.622223,-0.48032 -2.219663,0.0102 -2.966197,0.12486 -4.123478,0.63391 -0.803404,0.35343 -1.933761,1.17687 -2.619798,1.90848 -0.663674,0.70774 -1.532409,1.928 -1.930524,2.71169 -0.57874,1.13924 -0.651228,1.47081 -0.361598,1.65392 0.208936,0.13212 -1.128951,0.23179 -3.161221,0.23554 -1.937908,0.004 -4.161218,0.0829 -4.940688,0.1763 -1.177034,0.14103 -1.446796,0.0929 -1.591745,-0.28387 z m 170.102672,-0.18054 c -6.6336,-0.0972 -18.89119,-0.20196 -27.23911,-0.23277 -8.34791,-0.0308 -16.15692,-0.0215 -16.43247,-0.1297 -0.27556,-0.10822 -0.53191,-1.94508 -0.49116,-2.06412 0.0384,-0.1118 0.20657,-0.0538 0.33348,-0.0738 0.18435,-0.0291 0.64213,-0.23797 1.0741,-0.74631 0.43199,-0.50837 1.21247,-1.55924 1.7344,-2.33528 0.52196,-0.77605 1.75165,-2.04022 2.73272,-2.8093 0.98107,-0.76904 2.22187,-1.49991 2.75736,-1.6241 0.53548,-0.12423 1.87396,-0.22873 2.9744,-0.23228 1.51493,-0.005 2.21229,-0.13685 2.87188,-0.54348 0.4791,-0.29537 1.60443,-1.42828 2.50074,-2.51762 0.89628,-1.0893 2.21662,-2.36841 2.93407,-2.84246 1.2243,-0.80892 1.44741,-0.86023 3.62958,-0.83495 1.27881,0.0148 2.63001,0.11359 3.00268,0.21969 0.45474,0.12934 0.65989,0.36499 0.62378,0.71654 -0.0294,0.28809 -0.13463,1.08154 -0.23345,1.76321 -0.13082,0.9025 -0.0589,1.4725 0.2648,2.09677 0.24446,0.47155 0.92622,1.16072 1.51501,1.53149 0.5888,0.37076 1.72042,1.34338 2.5147,2.1614 l 1.44415,1.4873 h 2.31578 c 1.27368,0 2.69659,0.13242 3.16204,0.29427 0.47249,0.16429 1.09961,0.70317 1.41987,1.22003 0.31545,0.5092 0.79858,1.04591 1.07361,1.19271 0.275,0.14682 0.7897,0.26696 1.14374,0.26696 0.44522,0 1.04906,-0.46837 1.95817,-1.51875 0.72297,-0.83533 1.71803,-1.68695 2.21128,-1.89252 0.49325,-0.20558 1.54369,-0.37378 2.33434,-0.37378 0.79062,0 2.25192,0.22526 3.24728,0.50059 0.9954,0.27532 2.11939,0.70292 2.49774,0.95021 0.37838,0.2473 0.94633,0.95488 1.26218,1.57241 0.45542,0.89048 0.55172,1.47546 0.46545,2.82712 -0.0814,1.275 -0.0148,1.74031 0.2645,1.84721 0.20534,0.0786 0.96598,0.14291 1.69035,0.14291 0.72435,0 1.38476,-0.10937 1.46757,-0.24299 0.0829,-0.13363 -0.0903,-0.77237 -0.38461,-1.41939 -0.29435,-0.64703 -0.53784,-1.62002 -0.54111,-2.1622 -0.004,-0.58923 0.40114,-1.83995 1.00601,-3.10915 0.89068,-1.86891 1.01168,-2.36632 1.0097,-4.15105 -0.001,-1.70122 -0.13668,-2.31067 -0.83703,-3.78505 -0.45911,-0.96654 -1.07952,-2.05394 -1.37867,-2.41644 l -0.54389,-0.65911 -1.07978,1.13224 c -1.00832,1.0573 -1.17668,1.13217 -2.54466,1.13122 -0.96031,-6.5e-4 -1.75558,-0.17781 -2.30878,-0.5143 -0.46794,-0.28463 -1.11524,-1.07249 -1.45305,-1.76857 -0.47108,-0.97069 -0.6086,-1.72752 -0.60656,-3.33833 10e-4,-1.14569 -0.12192,-2.23514 -0.27411,-2.42102 -0.15219,-0.18588 -0.61125,-0.33796 -1.0201,-0.33796 -0.40885,0 -1.06549,0.25277 -1.45922,0.56169 -0.39372,0.30894 -0.84766,0.80735 -1.00875,1.1076 -0.16109,0.30026 -0.39406,1.62176 -0.51772,2.93666 -0.12358,1.3149 -0.38839,2.73117 -0.58832,3.14728 -0.19994,0.41608 -0.56879,0.79597 -0.81968,0.84417 -0.35092,0.0675 -0.58795,-0.33727 -1.02733,-1.75405 -0.31413,-1.01291 -0.88002,-3.60577 -1.25751,-5.76189 -0.37751,-2.15614 -0.93124,-4.65023 -1.2305,-5.542415 -0.29928,-0.892199 -0.96074,-2.307988 -1.46995,-3.146208 -0.50919,-0.838232 -1.427,-1.975698 -2.03957,-2.52772 -0.61254,-0.552046 -1.61829,-1.232247 -2.23501,-1.511581 -0.61669,-0.279347 -1.38074,-0.510554 -1.69792,-0.513833 -0.31715,-0.0039 -0.7434,0.194492 -0.94721,0.439466 -0.20522,0.246651 -0.35076,0.956179 -0.32618,1.590034 0.0245,0.629538 0.31224,1.66828 0.63958,2.308307 0.32731,0.640014 1.72572,2.266507 3.10754,3.614397 1.38182,1.347903 2.70596,2.833383 2.9425,3.301043 0.23657,0.46766 0.50613,1.3244 0.59901,1.9039 0.0929,0.57948 0.023,1.59387 -0.1552,2.2542 -0.20856,0.77266 -0.72524,1.60075 -1.44947,2.32318 -0.66119,0.65955 -1.57214,1.24627 -2.2086,1.42253 -0.59577,0.16499 -1.36785,0.30065 -1.71567,0.30148 -0.34783,8.2e-4 -0.58533,-0.0898 -0.52777,-0.20127 0.0575,-0.11154 0.32454,-0.68586 0.59329,-1.27629 0.34934,-0.76748 0.44213,-1.41214 0.32547,-2.26111 -0.0897,-0.65315 -0.57601,-1.87334 -1.08061,-2.71151 -0.50458,-0.83817 -1.12682,-1.9364 -1.38275,-2.44052 -0.25592,-0.50409 -0.56043,-1.95756 -0.67668,-3.229906 -0.1863,-2.038797 -0.29752,-2.387298 -0.93716,-2.936104 -0.50987,-0.437481 -1.0639,-0.621919 -1.86254,-0.620075 -0.63301,0.0013 -1.77005,0.296725 -2.56571,0.666229 -0.78592,0.364971 -2.00931,1.267401 -2.71865,2.005384 -0.70933,0.737984 -1.89581,2.378532 -2.63659,3.645662 -0.74083,1.26715 -1.88209,3.2812 -2.53615,4.47571 -0.65407,1.1945 -1.8439,2.89347 -2.64406,3.77546 -0.8453,0.93177 -2.04433,1.89667 -2.86179,2.30302 -1.05152,0.52269 -1.82505,0.69935 -3.06222,0.69935 -1.23225,0 -2.01079,-0.17669 -3.04616,-0.69136 -0.76498,-0.38027 -1.82139,-1.16669 -2.34754,-1.74765 -0.52616,-0.58095 -1.28215,-1.69699 -1.67997,-2.48009 -0.46065,-0.90677 -0.77284,-2.03915 -0.85968,-3.11824 -0.099,-1.23023 -0.006,-2.03414 0.33846,-2.93454 0.30637,-0.80022 0.77619,-1.42347 1.32448,-1.75696 0.46733,-0.28426 1.30076,-0.51728 1.85208,-0.51783 0.55131,-5.7e-4 2.00903,0.31619 3.2394,0.70389 1.59455,0.50247 2.58846,0.6654 3.46076,0.56732 0.88072,-0.099 1.39719,-0.33874 1.84252,-0.85517 0.42042,-0.487554 0.61877,-1.062844 0.61877,-1.794707 0,-0.592424 -0.23399,-1.528524 -0.51997,-2.080225 -0.286,-0.551688 -1.1419,-1.694098 -1.90201,-2.538694 -0.76011,-0.844598 -1.62113,-2.061209 -1.91337,-2.703605 -0.29227,-0.642395 -0.53407,-1.332086 -0.53734,-1.53266 -0.004,-0.200587 0.18344,-0.762764 0.41489,-1.249318 0.23145,-0.486542 0.81078,-1.08459 1.2874,-1.329013 0.47663,-0.244424 1.96429,-0.691074 3.30592,-0.992575 1.34164,-0.301502 2.88996,-0.844469 3.44072,-1.206622 0.55079,-0.362141 1.30149,-1.17823 1.66825,-1.813519 0.36673,-0.635301 1.06608,-2.122896 1.55408,-3.305801 0.59515,-1.442618 1.26504,-2.527502 2.03462,-3.295183 0.74254,-0.740699 1.49159,-1.208902 2.12299,-1.327066 0.80613,-0.150847 1.34012,-0.0013 3.07307,0.857736 1.76074,0.873321 2.42743,1.056121 4.15343,1.138735 1.66509,0.07979 2.31848,-0.01421 3.43639,-0.493931 0.75918,-0.325783 1.60248,-0.837387 1.87398,-1.136891 0.41449,-0.457229 0.48052,-0.927864 0.41182,-2.93526 -0.0629,-1.834508 0.0247,-2.598309 0.37615,-3.283081 0.2519,-0.490807 0.83074,-1.41358 1.28632,-2.050617 l 0.82832,-1.15825 -2.28862,-2.318697 c -1.25875,-1.275284 -3.44731,-3.336291 -4.86348,-4.580017 -1.41616,-1.243727 -2.6185,-2.133768 -2.67185,-1.97787 -0.0534,0.155898 0.28937,0.76307 0.76162,1.349273 0.47225,0.586201 1.2318,1.86122 1.68786,2.833375 0.53363,1.137496 0.87675,2.364682 0.96258,3.442733 0.0734,0.921348 -0.0102,2.20327 -0.18497,2.848716 -0.18417,0.678973 -0.77256,1.66509 -1.39617,2.339937 -0.59282,0.641539 -1.50234,1.367355 -2.0212,1.612945 -0.55059,0.260623 -1.42064,0.41202 -2.08975,0.36365 l -1.14643,-0.08286 0.0949,-1.944208 c 0.0634,-1.298687 -0.0504,-2.375901 -0.34264,-3.244328 -0.24064,-0.715056 -0.84218,-1.777179 -1.33683,-2.360271 -0.62693,-0.739046 -1.03625,-1.007763 -1.35132,-0.887157 -0.25724,0.09847 -0.45198,0.467884 -0.45198,0.857397 0,0.394296 -0.1551,0.684386 -0.3659,0.684386 -0.20123,0 -0.84943,-0.349403 -1.44042,-0.776452 -0.59099,-0.427048 -1.46502,-1.268234 -1.94226,-1.869302 -0.47724,-0.601065 -1.16358,-1.742025 -1.52517,-2.535463 -0.36162,-0.793437 -0.796,-2.24622 -0.96529,-3.228405 -0.22107,-1.282599 -0.22741,-2.219618 -0.0225,-3.325401 0.15691,-0.846784 0.53227,-2.096486 0.83409,-2.777113 0.30182,-0.680627 0.54878,-1.387166 0.54878,-1.570085 0,-0.182921 -1.37213,-1.07371 -3.04915,-1.979532 -1.67705,-0.905823 -3.29309,-1.732604 -3.59124,-1.83729 -0.29813,-0.104692 -2.00566,-0.800541 -3.79449,-1.546348 -1.78884,-0.745806 -5.08192,-1.998354 -7.31798,-2.783443 -2.23604,-0.785089 -3.92666,-1.433728 -3.75688,-1.441421 0.16977,-0.0078 1.75534,0.481305 3.52347,1.086663 1.76814,0.605356 4.86134,1.767719 6.87378,2.583026 2.01246,0.815308 4.93964,2.111369 6.50488,2.880133 1.56522,0.768766 4.5534,2.546668 6.64039,3.950893 2.08697,1.404226 4.90312,3.369674 6.25808,4.36766 1.35495,0.997984 2.73416,1.958971 3.06488,2.135523 0.33072,0.176553 1.84437,1.391598 3.36369,2.700101 1.51932,1.308502 3.74565,3.399117 4.94742,4.645807 1.20177,1.246692 3.28285,3.550375 4.62463,5.119291 1.34179,1.568927 3.36905,4.076849 4.50506,5.573178 1.13602,1.496303 2.8544,3.923353 3.81864,5.393402 0.96422,1.47005 2.55002,4.132776 3.52399,5.917147 0.97395,1.784384 2.50467,4.901776 3.40158,6.927523 0.89693,2.02576 2.24172,5.493125 2.98847,7.705271 0.74675,2.21216 1.65479,5.17789 2.0179,6.59054 0.36307,1.41262 0.90983,3.78504 1.215,5.27202 0.30517,1.48698 1.05549,4.01085 1.28702,5.64653 0.23154,1.63568 0.72568,4.46188 0.86989,6.31841 0.1442,1.8565 0.11283,3.5461 0.006,3.64087 -0.10642,0.0948 -2.76383,0.19215 -5.37255,0.25438 -2.60873,0.0621 -10.17063,0.0336 -16.80424,-0.0636 z M 170.50249,82.814804 c 0.004,-0.574958 0.25371,-1.532034 0.5565,-2.126828 0.30281,-0.594782 0.79367,-1.507266 1.09082,-2.027706 0.40097,-0.702305 0.49869,-1.223501 0.37905,-2.021662 -0.0886,-0.59149 -0.50213,-1.686453 -0.91882,-2.433247 -0.41667,-0.746819 -1.20486,-2.082799 -1.75155,-2.968889 -0.54666,-0.886077 -1.11394,-2.04187 -1.26059,-2.568419 -0.14665,-0.526553 -0.2673,-2.241987 -0.26813,-3.812073 -0.001,-1.977475 0.11142,-3.008697 0.36585,-3.355842 0.20204,-0.27563 0.54401,-0.433522 0.75993,-0.350873 0.21591,0.08266 0.78161,0.878332 1.25707,1.768186 0.47547,0.889854 1.04033,2.53464 1.25524,3.655081 0.21491,1.120441 0.65729,2.564864 0.98304,3.209822 0.32576,0.644957 1.55334,2.0938 2.72796,3.219651 l 2.13567,2.047006 v 1.503179 c 0,1.400217 0.0649,1.552639 0.94859,2.224938 0.79536,0.605142 0.94864,0.890367 0.94864,1.765406 0,0.833479 -0.16792,1.184581 -0.8339,1.743582 -0.45863,0.384961 -0.91602,0.708413 -1.01639,0.718799 -0.10024,0.01025 -1.5241,0.120508 -3.16387,0.244551 -1.63976,0.124095 -3.25582,0.312323 -3.59124,0.418207 -0.56112,0.177151 -0.60935,0.108983 -0.60387,-0.852869 z m -5.88697,-1.586435 c -0.31951,-0.223229 -0.65566,-0.745348 -0.74702,-1.160251 -0.10834,-0.491804 0.0729,-1.387832 0.52062,-2.574257 0.3777,-1.000938 0.6867,-2.1695 0.6867,-2.596799 0,-0.550843 0.27877,-1.021044 0.95806,-1.615979 0.60153,-0.526831 1.25117,-0.839103 1.74573,-0.839103 0.43323,0 0.85001,0.100532 0.92617,0.223523 0.0762,0.122941 -0.0294,1.817425 -0.235,3.7655 -0.20543,1.948089 -0.50729,3.791318 -0.67081,4.09606 -0.16348,0.304729 -0.53037,0.67851 -0.81529,0.830624 -0.28494,0.152103 -0.80383,0.276556 -1.15313,0.276556 -0.34932,0 -0.89653,-0.182646 -1.21603,-0.405874 z M 119.58578,60.55448 c -0.79569,-0.289035 -1.96813,-0.830334 -2.60543,-1.202886 -0.63731,-0.372554 -1.55477,-1.127301 -2.0388,-1.677215 l -0.88007,-0.999844 0.18354,-2.998306 c 0.15779,-2.577599 0.10876,-3.22592 -0.34938,-4.620469 -0.29311,-0.892189 -0.99568,-2.717122 -1.56126,-4.055406 -0.82175,-1.944447 -1.03143,-2.786264 -1.04376,-4.190587 -0.008,-0.966538 0.0455,-1.938503 0.12007,-2.159926 0.10392,-0.308734 -0.0541,-0.381385 -0.67759,-0.311657 -0.44721,0.05001 -0.75213,0.0311 -0.6776,-0.04204 0.0746,-0.07314 1.84305,-0.443014 3.93003,-0.82196 2.08698,-0.378946 5.21609,-0.883611 6.95359,-1.121479 1.7375,-0.237866 5.0001,-0.523845 7.25021,-0.635511 2.25012,-0.111659 5.89014,-0.106819 8.08891,0.01075 2.19877,0.117575 4.62521,0.244547 5.39206,0.282146 0.76685,0.0376 1.33897,0.159611 1.27143,0.271133 -0.0675,0.111532 -0.34673,0.202771 -0.62039,0.202771 -0.27363,0 -1.2917,0.244691 -2.26239,0.543758 -1.28789,0.396792 -1.9915,0.801226 -2.60338,1.496388 -0.46119,0.523948 -0.84121,1.161309 -0.84449,1.416357 -0.004,0.255049 -0.25437,1.011203 -0.55804,1.680344 -0.30365,0.669142 -0.88031,1.562336 -1.28147,1.984875 -0.40115,0.422538 -1.15625,0.982871 -1.678,1.245183 -0.52175,0.262314 -1.36082,0.55544 -1.86463,0.651394 -0.5038,0.09596 -1.69233,0.03178 -2.64115,-0.142617 -1.38005,-0.253651 -1.8574,-0.24647 -2.3863,0.0359 -0.36365,0.194133 -0.78124,0.671274 -0.92797,1.060317 -0.14674,0.38904 -0.33733,2.302239 -0.42356,4.25155 -0.10723,2.424372 -0.36592,4.366607 -0.8187,6.147063 -0.36405,1.431573 -0.82267,2.939068 -1.01913,3.349988 -0.25749,0.538539 -0.5837,0.765048 -1.16844,0.811315 -0.44618,0.03531 -1.46224,-0.172293 -2.25792,-0.461327 z m 29.09237,-8.755469 c -0.91571,-0.273948 -1.09639,-0.449247 -1.16286,-1.128256 -0.0433,-0.442152 -0.20621,-1.128048 -0.36205,-1.524211 -0.15583,-0.396164 -0.64124,-0.868179 -1.07868,-1.048919 -0.43743,-0.180743 -1.09778,-0.687162 -1.46745,-1.125379 -0.36965,-0.438218 -0.67209,-1.007985 -0.67209,-1.266153 0,-0.258167 0.34972,-0.803603 0.77713,-1.212082 l 0.77713,-0.742686 1.02243,0.692105 c 0.56233,0.380656 1.13538,0.692103 1.27343,0.692103 0.13809,0 0.48543,-0.125131 0.77191,-0.278063 0.28648,-0.152935 0.9457,-0.940526 1.46494,-1.750202 0.61663,-0.961547 1.19002,-1.533715 1.65319,-1.649676 0.50867,-0.127347 0.91317,-0.01543 1.43089,0.395917 0.39697,0.3154 1.11815,0.750857 1.60263,0.967681 0.66824,0.29907 0.88086,0.564764 0.88086,1.100716 0,0.388568 0.19974,1.315627 0.44386,2.06013 0.35943,1.096111 0.38566,1.547397 0.13797,2.37207 -0.20014,0.666402 -0.75175,1.392498 -1.59577,2.100621 -0.70942,0.595208 -1.55627,1.223491 -1.88188,1.396186 -0.3256,0.172696 -1.11839,0.304641 -1.76173,0.293215 -0.64334,-0.01139 -1.6576,-0.166732 -2.25386,-0.345117 z M 105.98997,39.322784 c 0.52175,-0.200421 1.13158,-0.364402 1.35519,-0.364402 0.2236,0 -0.0204,0.163981 -0.54208,0.364402 -0.52175,0.200423 -1.13157,0.364405 -1.35518,0.364405 -0.22361,0 0.0203,-0.163982 0.54207,-0.364405 z m 51.36133,-0.135178 c -0.34167,-0.14646 -0.39177,-0.232358 -0.13552,-0.232358 0.2236,0 0.65048,0.104565 0.94863,0.232358 0.34168,0.146457 0.39177,0.232354 0.13551,0.232354 -0.2236,0 -0.65048,-0.104565 -0.94862,-0.232354 z m -49.24385,-0.455049 c 0.19564,-0.07811 0.42942,-0.0685 0.51948,0.02134 0.0901,0.08984 -0.07,0.153737 -0.35573,0.141998 -0.31575,-0.01298 -0.37998,-0.07704 -0.16375,-0.163343 z m 47.97336,0 c 0.19566,-0.07811 0.42941,-0.0685 0.51948,0.02134 0.09,0.08984 -0.07,0.153737 -0.35572,0.141998 -0.31574,-0.01298 -0.37997,-0.07704 -0.16376,-0.163343 z m -46.88923,-0.27036 c 0.19566,-0.07811 0.42943,-0.0685 0.51949,0.02135 0.0901,0.08984 -0.07,0.153737 -0.35574,0.141999 -0.31574,-0.01298 -0.37996,-0.07705 -0.16375,-0.163343 z m 45.80508,0 c 0.19567,-0.07811 0.42942,-0.0685 0.51949,0.02135 0.09,0.08984 -0.0699,0.153737 -0.35572,0.141999 -0.31574,-0.01298 -0.37997,-0.07705 -0.16377,-0.163343 z m -1.08413,-0.27036 c 0.19564,-0.07811 0.42942,-0.0685 0.51948,0.02135 0.0902,0.08984 -0.0699,0.153738 -0.35574,0.141998 -0.31574,-0.01298 -0.37996,-0.07705 -0.16374,-0.163342 z m -1.08414,-0.270361 c 0.19564,-0.07811 0.42943,-0.0685 0.51948,0.02135 0.0902,0.08984 -0.0699,0.153737 -0.35574,0.141998 -0.31574,-0.01298 -0.37997,-0.07705 -0.16374,-0.163342 z m -1.37214,-0.264728 c 0.18636,-0.075 0.49126,-0.075 0.67762,0 0.18632,0.075 0.0338,0.136367 -0.33882,0.136367 -0.37266,0 -0.52511,-0.06136 -0.3388,-0.136367 z m -1.35517,-0.270361 c 0.18633,-0.075 0.49127,-0.075 0.67759,0 0.18633,0.075 0.0338,0.136367 -0.33879,0.136367 -0.37268,0 -0.52513,-0.06136 -0.3388,-0.136367 z m -1.35519,-0.27036 c 0.18633,-0.075 0.49127,-0.075 0.67759,0 0.18635,0.075 0.0341,0.136366 -0.33878,0.136366 -0.37268,0 -0.52515,-0.06137 -0.33881,-0.136366 z m -1.35516,-0.27036 c 0.18633,-0.075 0.49124,-0.075 0.67757,0 0.18634,0.075 0.0338,0.136366 -0.33878,0.136366 -0.37268,0 -0.52515,-0.06137 -0.33879,-0.136366 z m -1.76174,-0.277672 c 0.26087,-0.06801 0.68775,-0.06801 0.94863,0 0.26087,0.06801 0.0474,0.123646 -0.47432,0.123646 -0.52175,0 -0.73519,-0.05563 -0.47431,-0.123646 z m -1.89727,-0.270362 c 0.26089,-0.06801 0.68777,-0.06801 0.94865,0 0.26087,0.06801 0.0474,0.123646 -0.47432,0.123646 -0.52175,0 -0.73519,-0.05563 -0.47433,-0.123646 z"
     id="path432"
     sodipodi:nodetypes="csssssssssssssssssssssssssssssssssssssssssssssssssssssssssssssssssssssssscssscsssssssssssssssssssssssssssssccssssssssssssssssssssssssssssssccsssccccccssssssscsssscssssscsssssssssssssssccscsscsssscsssssscsssssscscsssssssssscsssscssssssssssscssssssssscssssssssccsscsscsssssscssscsssssssssscsssssscsssssssssssssssssssscccssssssscssssscssssssscscssssscsssscsscssscsssssssscssscsssssssssssccssssssscsssssssssssscsssssssssssssssssssssssssssssssssssssssssssssssssssssssssssssssss"
     inkscape:label="land" /><path
     style="display:inline;fill:#000000;fill-opacity:1;stroke:#ffffff;stroke-width:6.40322;stroke-dasharray:none;stroke-opacity:1"
     d="m 230.25435,134.46698 c -0.46315,-0.46316 -1.10234,-0.48005 -12.29103,-0.32479 -6.49134,0.09 -22.60013,0.23895 -35.79729,0.33081 l -23.99481,0.16703 -0.54626,-0.69444 c -0.30043,-0.38195 -1.11847,-2.17428 -1.81786,-3.98298 -0.6994,-1.80868 -1.49146,-3.80078 -1.76017,-4.42688 -0.35072,-0.81723 -0.64554,-1.13837 -1.04506,-1.13837 -0.32647,0 -0.65707,0.24912 -0.79976,0.60266 -0.1338,0.33148 -0.92839,3.01333 -1.76574,5.95969 -0.83735,2.94635 -2.58912,9.25982 -3.89282,14.02997 -1.30369,4.77012 -2.43222,8.73481 -2.50783,8.81043 -0.0756,0.0756 -0.20089,-0.0304 -0.27839,-0.23567 -0.0775,-0.20524 -1.87842,-6.94219 -4.00201,-14.971 -2.12362,-8.02882 -5.25973,-19.66023 -6.96914,-25.84756 -1.70943,-6.18735 -3.24064,-11.58121 -3.40267,-11.98633 -0.16206,-0.40514 -0.46276,-0.73661 -0.66824,-0.73661 -0.2055,0 -0.55088,0.39174 -0.76751,0.87052 -0.21663,0.47879 -0.82581,2.55799 -1.35372,4.62045 -0.52791,2.06245 -1.24477,4.83471 -1.59299,6.16056 -0.34824,1.32586 -2.14776,8.16335 -3.99896,15.19442 -1.85119,7.03109 -3.36579,13.0619 -3.36579,13.40182 0,0.3399 -0.24107,1.3039 -0.5357,2.14219 -0.29464,0.83829 -0.53571,1.70175 -0.53571,1.9188 0,0.21705 -0.28385,1.33499 -0.63079,2.48431 -0.34694,1.14932 -0.75659,2.69234 -0.91033,3.42892 -0.15375,0.73659 -0.48427,1.88165 -0.7345,2.54458 -0.25022,0.66292 -0.79637,2.53119 -1.21365,4.15168 -0.41728,1.62049 -1.2386,4.69408 -1.82517,6.83019 -0.58656,2.1361 -1.5755,5.87262 -2.19765,8.30335 -0.62214,2.43075 -1.22047,4.58866 -1.32962,4.79536 -0.1166,0.2208 -0.66421,-1.60207 -1.32766,-4.41954 -0.62105,-2.63744 -1.3093,-5.45828 -1.52942,-6.26852 -0.22012,-0.81024 -0.67749,-2.55797 -1.01638,-3.88383 -0.33891,-1.32585 -1.90931,-7.77435 -3.48981,-14.32999 -1.786864,-7.41173 -3.039289,-12.08879 -3.31174,-12.36739 -0.398765,-0.40777 -2.581107,-0.47405 -24.276837,-0.73739 -13.111278,-0.15913 -27.01827,-0.31911 -30.904428,-0.35551 -6.383994,-0.0599 -7.093576,-0.0225 -7.354221,0.38625 l 0.166909,-3.57999 c 0.349185,0.28979 6.02202,0.17652 32.649697,-0.65197 17.724896,-0.55148 32.68372,-0.91475 33.24185,-0.80728 0.85447,0.16456 1.0974,0.37302 1.53792,1.31972 0.28776,0.61836 1.4402,4.43893 2.56101,8.49017 1.12081,4.05124 2.21467,7.64516 2.43079,7.98648 0.3289,0.51942 0.46009,0.56488 0.80472,0.27886 0.22647,-0.18794 0.52846,-0.64802 0.67109,-1.02237 v 2e-5 c 0.14264,-0.37435 1.28273,-4.35689 2.53356,-8.85008 1.25082,-4.49318 2.68849,-9.64596 3.19481,-11.45059 0.50634,-1.80465 1.33388,-4.7577 1.83898,-6.56235 0.50511,-1.80463 1.71044,-6.11693 2.67851,-9.58287 0.96806,-3.46593 1.75743,-6.47928 1.75415,-6.69627 -0.003,-0.217 1.77457,-6.691976 3.95079,-14.388793 2.17622,-7.696831 4.01704,-13.993586 4.09069,-13.992805 0.0737,7.81e-4 1.86007,6.358444 3.96977,14.128143 2.10971,7.769712 4.25806,15.693685 4.7741,17.608815 0.51606,1.91513 1.40439,5.16953 1.97407,7.23196 0.56968,2.06245 1.53652,5.5579 2.14855,7.76766 0.61202,2.20978 1.40228,5.03592 1.75613,6.28036 0.35385,1.24443 0.75374,2.37296 0.88864,2.50785 0.13487,0.13488 0.37401,0.16567 0.53139,0.0684 0.1574,-0.0973 1.99237,-5.35767 4.07773,-11.68975 2.08536,-6.33209 3.83301,-11.47145 3.88364,-11.4208 0.0507,0.0506 1.72983,4.96596 3.73151,10.92292 2.14908,6.3956 3.8543,11.05021 4.16414,11.36654 0.51222,0.52295 0.9943,0.53974 20.27144,0.7057 10.86069,0.0935 26.38205,0.1839 34.4919,0.20088 11.14632,0.0233 14.82361,-0.0475 15.06659,-0.29052 z"
     id="path1"
     inkscape:label="outer pulse"
     sodipodi:nodetypes="csscssssssssssssssssssssssssssssssssssccsssssssssssscsssssssssscsssscc" /><circle
     style="display:inline;fill:none;stroke:#ffffff;stroke-width:8.47091;stroke-dasharray:none;stroke-opacity:1"
     id="circle7"
     cx="132.51698"
     cy="131.91962"
     r="99.890144"
     inkscape:label="outer white circle" /><path
     style="display:inline;fill:#000000;fill-opacity:1;stroke:none;stroke-width:1.28065"
     d="m 230.90016,134.42085 c -0.46314,-0.46316 -1.74815,-0.43392 -12.93684,-0.27866 -6.49134,0.09 -22.60013,0.23895 -35.79729,0.33081 l -23.99481,0.16703 -0.54626,-0.69444 c -0.30043,-0.38195 -1.11847,-2.17428 -1.81786,-3.98298 -0.6994,-1.80868 -1.49146,-3.80078 -1.76017,-4.42688 -0.35072,-0.81723 -0.64554,-1.13837 -1.04506,-1.13837 -0.32647,0 -0.65707,0.24912 -0.79976,0.60266 -0.1338,0.33148 -0.92839,3.01333 -1.76574,5.95969 -0.83735,2.94635 -2.58912,9.25982 -3.89282,14.02997 -1.30369,4.77012 -2.43222,8.73481 -2.50783,8.81043 -0.0756,0.0756 -0.20089,-0.0304 -0.27839,-0.23567 -0.0775,-0.20524 -1.87842,-6.94219 -4.00201,-14.971 -2.12362,-8.02882 -5.25973,-19.66023 -6.96914,-25.84756 -1.70943,-6.18735 -3.24064,-11.58121 -3.40267,-11.98633 -0.16206,-0.40514 -0.46276,-0.73661 -0.66824,-0.73661 -0.2055,0 -0.55088,0.39174 -0.76751,0.87052 -0.21663,0.47879 -0.82581,2.55799 -1.35372,4.62045 -0.52791,2.06245 -1.24477,4.83471 -1.59299,6.16056 -0.34824,1.32586 -2.14776,8.16335 -3.99896,15.19442 -1.85119,7.03109 -3.36579,13.0619 -3.36579,13.40182 0,0.3399 -0.24107,1.3039 -0.5357,2.14219 -0.29464,0.83829 -0.53571,1.70175 -0.53571,1.9188 0,0.21705 -0.28385,1.33499 -0.63079,2.48431 -0.34694,1.14932 -0.75659,2.69234 -0.91033,3.42892 -0.15375,0.73659 -0.48427,1.88165 -0.7345,2.54458 -0.25022,0.66292 -0.79637,2.53119 -1.21365,4.15168 -0.41728,1.62049 -1.2386,4.69408 -1.82517,6.83019 -0.58656,2.1361 -1.5755,5.87262 -2.19765,8.30335 -0.62214,2.43075 -1.22047,4.58866 -1.32962,4.79536 -0.1166,0.2208 -0.66421,-1.60207 -1.32766,-4.41954 -0.62105,-2.63744 -1.3093,-5.45828 -1.52942,-6.26852 -0.22012,-0.81024 -0.67749,-2.55797 -1.01638,-3.88383 -0.33891,-1.32585 -1.90931,-7.77435 -3.48981,-14.32999 -1.786864,-7.41173 -3.039289,-12.08879 -3.31174,-12.36739 -0.398765,-0.40777 -2.581107,-0.47405 -24.276837,-0.73739 -13.111278,-0.15913 -27.01827,-0.31911 -30.904428,-0.35551 -6.383994,-0.0599 -7.332776,0.0318 -7.593422,0.44062 l -0.01793,-3.68872 c 0.349185,0.28978 6.446057,0.23088 33.073735,-0.59761 17.724896,-0.55148 32.683722,-0.91475 33.241842,-0.80728 0.85448,0.16456 1.09741,0.37302 1.53794,1.31972 0.28775,0.61836 1.44019,4.43893 2.561,8.49017 1.12081,4.05124 2.21467,7.64516 2.43079,7.98648 0.3289,0.51942 0.46009,0.56488 0.80472,0.27886 0.22647,-0.18794 0.52846,-0.64802 0.67109,-1.02237 v 2e-5 c 0.14264,-0.37435 1.28273,-4.35689 2.53355,-8.85008 1.25083,-4.49318 2.6885,-9.64596 3.19482,-11.45059 0.50633,-1.80465 1.33388,-4.7577 1.83898,-6.56235 0.50511,-1.80463 1.71044,-6.11693 2.67851,-9.58287 0.96806,-3.46593 1.75743,-6.47928 1.75415,-6.69627 -0.003,-0.217 1.77457,-6.691976 3.95079,-14.388793 2.17622,-7.696831 4.01704,-13.993586 4.09069,-13.992805 0.0737,7.81e-4 1.86007,6.358444 3.96977,14.128143 2.10971,7.769712 4.25806,15.693685 4.7741,17.608815 0.51606,1.91513 1.40439,5.16953 1.97407,7.23196 0.56968,2.06245 1.53652,5.5579 2.14855,7.76766 0.61202,2.20978 1.40228,5.03592 1.75613,6.28036 0.35385,1.24443 0.75374,2.37296 0.88864,2.50785 0.13487,0.13488 0.37401,0.16567 0.53139,0.0684 0.1574,-0.0973 1.99237,-5.35767 4.07773,-11.68975 2.08536,-6.33209 3.83301,-11.47145 3.88364,-11.4208 0.0507,0.0506 1.72983,4.96596 3.73151,10.92292 2.14908,6.3956 3.8543,11.05021 4.16414,11.36654 0.51222,0.52295 0.9943,0.53974 20.27144,0.7057 10.86069,0.0935 26.38205,0.1839 34.4919,0.20088 11.14632,0.0233 15.3464,-0.10898 15.58938,-0.35203 z"
     id="path427"
     inkscape:label="pulse"
     sodipodi:nodetypes="csscssssssssssssssssssssssssssssssssssccsssssssssssscsssssssssscsssscc" /><circle
     style="display:inline;fill:none;stroke:#000000;stroke-width:3.38836;stroke-dasharray:none;stroke-opacity:1"
     id="path7"
     cx="132.51698"
     cy="131.91962"
     r="99.890144"
     inkscape:label="outer black circle" /></svg>
